<?xml version="1.0" encoding="UTF-8" standalone="no"?>
<!-- Generator: Adobe Illustrator 16.0.0, SVG Export Plug-In . SVG Version: 6.00 Build 0)  -->

<svg
   xmlns:dc="http://purl.org/dc/elements/1.1/"
   xmlns:cc="http://creativecommons.org/ns#"
   xmlns:rdf="http://www.w3.org/1999/02/22-rdf-syntax-ns#"
   xmlns:svg="http://www.w3.org/2000/svg"
   xmlns="http://www.w3.org/2000/svg"
   xmlns:sodipodi="http://sodipodi.sourceforge.net/DTD/sodipodi-0.dtd"
   xmlns:inkscape="http://www.inkscape.org/namespaces/inkscape"
   version="1.1"
   id="Layer_1"
   x="0px"
   y="0px"
   width="1000"
   height="411.30301"
   viewBox="-215.19 -86.608 1000 411.30302"
   enable-background="new -215.19 -86.608 1000 402.473"
   xml:space="preserve"
   sodipodi:docname="Marvel Comics (2012) (Inverted).svg"
   inkscape:version="0.92.2 (5c3e80d, 2017-08-06)"><metadata
     id="metadata1712"><rdf:RDF><cc:Work
         rdf:about=""><dc:format>image/svg+xml</dc:format><dc:type
           rdf:resource="http://purl.org/dc/dcmitype/StillImage" /><dc:title></dc:title></cc:Work></rdf:RDF></metadata><defs
     id="defs1710" /><sodipodi:namedview
     pagecolor="#ffffff"
     bordercolor="#666666"
     borderopacity="1"
     objecttolerance="10"
     gridtolerance="10"
     guidetolerance="10"
     inkscape:pageopacity="0"
     inkscape:pageshadow="2"
     inkscape:window-width="1366"
     inkscape:window-height="705"
     id="namedview1708"
     showgrid="false"
     inkscape:zoom="0.40163665"
     inkscape:cx="91.597068"
     inkscape:cy="218.4993"
     inkscape:window-x="-8"
     inkscape:window-y="-8"
     inkscape:window-maximized="1"
     inkscape:current-layer="Layer_1" /><g
     id="g1705"
     style="fill:#000000"
     transform="matrix(0.98522167,0,0,0.98522167,4.2090148,6.1091281)"><path
       style="color:#000000;font-style:normal;font-variant:normal;font-weight:normal;font-stretch:normal;font-size:medium;line-height:normal;font-family:sans-serif;font-variant-ligatures:normal;font-variant-position:normal;font-variant-caps:normal;font-variant-numeric:normal;font-variant-alternates:normal;font-feature-settings:normal;text-indent:0;text-align:start;text-decoration:none;text-decoration-line:none;text-decoration-style:solid;text-decoration-color:#000000;letter-spacing:normal;word-spacing:normal;text-transform:none;writing-mode:lr-tb;direction:ltr;text-orientation:mixed;dominant-baseline:auto;baseline-shift:baseline;text-anchor:start;white-space:normal;shape-padding:0;clip-rule:nonzero;display:inline;overflow:visible;visibility:visible;opacity:1;isolation:auto;mix-blend-mode:normal;color-interpolation:sRGB;color-interpolation-filters:linearRGB;solid-color:#000000;solid-opacity:1;vector-effect:none;fill:#000000;fill-opacity:1;fill-rule:nonzero;stroke:none;stroke-width:15;stroke-linecap:butt;stroke-linejoin:miter;stroke-miterlimit:4;stroke-dasharray:none;stroke-dashoffset:0;stroke-opacity:1;color-rendering:auto;image-rendering:auto;shape-rendering:auto;text-rendering:auto;enable-background:accumulate"
       d="m -7.5,-7.5 v 417.47266 h 1015 V -7.5 Z M 0,0 H 1000 V 402.47266 H 0 Z"
       transform="translate(-215.19,-86.608)"
       id="rect2257"
       inkscape:connector-curvature="0" /><g
       id="g1703"
       style="fill:#000000"><path
         d="M 631.063,7.184 V -54.419 H 459.644 L 431.453,151.384 403.557,-54.418 H 341.74 l 6.925,54.915 c -7.14,-14.068 -32.449,-54.915 -88.146,-54.915 -0.367,-0.024 -61.901,0 -61.901,0 L 198.381,245.556 153.324,-54.418 72.365,-54.465 25.753,256.349 25.777,-54.42 h -77.483 l -27.933,174.585 -27.208,-174.583 h -77.508 v 337.906 h 61.036 v -162.87 l 27.764,162.866 h 32.449 L -35.732,120.618 V 283.484 H 81.935 l 7.14,-51.995 h 47.374 l 7.116,51.995 115.521,0.071 h 0.094 v -0.071 h 0.072 0.072 V 173.799 l 14.162,-2.063 29.319,111.819 h 0.072 59.61 0.07 l -0.024,-0.071 h 0.106 0.072 L 324.236,152.427 C 343.734,138.005 365.749,101.38 359.89,66.343 V 66.32 c 0.07,0.474 36.316,217.38 36.316,217.38 L 467.271,283.484 515.83,-22.8 v 306.285 h 115.236 v -60.773 h -54.7 v -77.496 h 54.7 V 83.518 h -54.7 V 7.184 Z M 96.265,177.905 113.023,33.444 l 17.4,144.461 z m 177.419,-66.704 c -4.697,2.278 -9.595,3.417 -14.363,3.417 V 5.927 c 0.083,0 0.179,-0.022 0.297,-0.022 4.78,-0.024 40.419,1.446 40.419,53.774 0,27.373 -12.121,44.62 -26.353,51.522 m 480.36,111.464 v 60.772 H 641.63 V -54.465 h 60.526 v 277.13 z"
         id="path1701"
         style="fill:#000000"
         inkscape:connector-curvature="0" /></g></g></svg>